<?xml version="1.0" encoding="UTF-8" standalone="no"?> <svg id="Layer_1" data-name="Layer 1" xmlns="http://www.w3.org/2000/svg" viewBox="0 0 128 128"><defs><style>.cls-1{fill:#1d75b8;}.cls-2{fill:#2d3e50;}</style></defs><title>n</title><path class="cls-1" d="M72.83595,36.73486,60.19619,49.375l-5.03177-5.03177a3.80842,3.80842,0,1,0-5.38591,5.38591L57.503,57.45368a3.80809,3.80809,0,0,0,5.38554,0l15.3329-15.3329a3.80828,3.80828,0,1,0-5.38554-5.38591Z"/><path class="cls-1" d="M52.71052,95.41436a14.56233,14.56233,0,0,1-14.46545-6.131l-1.00012-1.46684L23.91615,115.652l12.84935-.508,7.66136,10.32838L59.31775,94.38249l-.17143-.07306Z"/><path class="cls-1" d="M85.461,89.785l-4.81653,4.41328a14.55882,14.55882,0,0,1-9.8299,3.80685c-.13335,0-.26355-.00318-.39688-.00631L83.575,125.47238,91.2332,115.144l12.84937.508L91.22369,88.79758Z"/><path class="cls-2" d="M107.94056,54.10886l-2.58532-7.98822,2.14383-8.11786a8.17994,8.17994,0,0,0-2.72343-8.41505L98.282,24.26536l-2.58534-7.98822a8.17989,8.17989,0,0,0-6.84062-5.6068l-8.34033-.96673L74.022,4.38121a8.17984,8.17984,0,0,0-8.786-1.01839l-7.539,3.69585-8.34033-.96675a8.18,8.18,0,0,0-7.9418,3.89331l-4.34405,7.185-7.539,3.69585a8.18,8.18,0,0,0-4.57621,7.56895l.23008,8.393-4.3441,7.185a8.18,8.18,0,0,0,.24235,8.84149l4.73114,6.93627.23006,8.393a8.17992,8.17992,0,0,0,4.98392,7.30688l7.73012,3.27733,4.73114,6.9363a8.18,8.18,0,0,0,8.14316,3.45244l8.27486-1.42215,7.73009,3.27729a8.18,8.18,0,0,0,8.717-1.49812l6.19237-5.67015,8.27482-1.42215a8.17987,8.17987,0,0,0,6.52325-5.97308l2.14386-8.11786,6.19237-5.67011A8.1799,8.1799,0,0,0,107.94056,54.10886ZM64,75.80782a28.71351,28.71351,0,1,1,28.71352-28.7135A28.7135,28.7135,0,0,1,64,75.80782Z" /></svg>